<svg width="1319" height="541" viewBox="0 0 1319 541" fill="none" xmlns="http://www.w3.org/2000/svg">
<g clip-path="url(#clip0_9_36)">
<rect width="1319" height="541" rx="24" fill="#C1DCDC"/>
<path d="M127.232 144.92C127.232 147.651 126.592 150.147 125.312 152.408C124.075 154.627 122.176 156.419 119.616 157.784C117.099 159.107 114.005 159.768 110.336 159.768H104.128V175H91.584V129.88H110.336C113.963 129.88 117.035 130.52 119.552 131.8C122.112 133.08 124.032 134.851 125.312 137.112C126.592 139.373 127.232 141.976 127.232 144.92ZM109.12 149.784C112.661 149.784 114.432 148.163 114.432 144.92C114.432 141.635 112.661 139.992 109.12 139.992H104.128V149.784H109.12ZM148.976 175.448C145.392 175.448 142.17 174.701 139.312 173.208C136.496 171.715 134.277 169.581 132.656 166.808C131.034 164.035 130.224 160.771 130.224 157.016C130.224 153.304 131.034 150.061 132.656 147.288C134.32 144.515 136.56 142.381 139.376 140.888C142.234 139.395 145.456 138.648 149.04 138.648C152.624 138.648 155.824 139.395 158.64 140.888C161.498 142.381 163.738 144.515 165.36 147.288C167.024 150.061 167.856 153.304 167.856 157.016C167.856 160.728 167.024 163.992 165.36 166.808C163.738 169.581 161.498 171.715 158.64 173.208C155.781 174.701 152.56 175.448 148.976 175.448ZM148.976 164.568C150.725 164.568 152.176 163.928 153.328 162.648C154.522 161.325 155.12 159.448 155.12 157.016C155.12 154.584 154.522 152.728 153.328 151.448C152.176 150.168 150.746 149.528 149.04 149.528C147.333 149.528 145.904 150.168 144.752 151.448C143.6 152.728 143.024 154.584 143.024 157.016C143.024 159.491 143.578 161.368 144.688 162.648C145.797 163.928 147.226 164.568 148.976 164.568ZM226.015 139.096L216.863 175H202.783L197.791 153.24L192.607 175H178.591L169.503 139.096H181.983L186.015 162.904L191.327 139.096H204.767L210.271 162.968L214.239 139.096H226.015ZM263.888 156.632C263.888 157.613 263.824 158.595 263.696 159.576H239.952C240.08 161.539 240.613 163.011 241.552 163.992C242.533 164.931 243.771 165.4 245.264 165.4C247.355 165.4 248.848 164.461 249.744 162.584H263.12C262.565 165.059 261.477 167.277 259.856 169.24C258.277 171.16 256.272 172.675 253.84 173.784C251.408 174.893 248.72 175.448 245.776 175.448C242.235 175.448 239.077 174.701 236.304 173.208C233.573 171.715 231.419 169.581 229.84 166.808C228.304 164.035 227.536 160.771 227.536 157.016C227.536 153.261 228.304 150.019 229.84 147.288C231.376 144.515 233.509 142.381 236.24 140.888C239.013 139.395 242.192 138.648 245.776 138.648C249.317 138.648 252.453 139.373 255.184 140.824C257.915 142.275 260.048 144.365 261.584 147.096C263.12 149.784 263.888 152.963 263.888 156.632ZM251.088 153.496C251.088 151.96 250.576 150.765 249.552 149.912C248.528 149.016 247.248 148.568 245.712 148.568C244.176 148.568 242.917 148.995 241.936 149.848C240.955 150.659 240.315 151.875 240.016 153.496H251.088ZM281.566 145.432C282.974 143.384 284.68 141.763 286.686 140.568C288.691 139.373 290.846 138.776 293.15 138.776V152.152H289.63C286.899 152.152 284.872 152.685 283.55 153.752C282.227 154.819 281.566 156.675 281.566 159.32V175H269.022V139.096H281.566V145.432ZM109.44 193.88C114.176 193.88 118.315 194.84 121.856 196.76C125.44 198.637 128.192 201.283 130.112 204.696C132.032 208.109 132.992 212.013 132.992 216.408C132.992 220.76 132.011 224.643 130.048 228.056C128.128 231.469 125.376 234.157 121.792 236.12C118.251 238.04 114.133 239 109.44 239H91.584V193.88H109.44ZM108.48 227.928C112.149 227.928 115.029 226.925 117.12 224.92C119.211 222.915 120.256 220.077 120.256 216.408C120.256 212.696 119.211 209.837 117.12 207.832C115.029 205.784 112.149 204.76 108.48 204.76H104.128V227.928H108.48ZM144.983 199.768C142.764 199.768 140.972 199.171 139.607 197.976C138.284 196.739 137.623 195.203 137.623 193.368C137.623 191.491 138.284 189.933 139.607 188.696C140.972 187.459 142.764 186.84 144.983 186.84C147.159 186.84 148.908 187.459 150.231 188.696C151.596 189.933 152.279 191.491 152.279 193.368C152.279 195.203 151.596 196.739 150.231 197.976C148.908 199.171 147.159 199.768 144.983 199.768ZM151.191 203.096V239H138.647V203.096H151.191ZM173.63 239.448C170.387 239.448 167.486 238.915 164.926 237.848C162.409 236.739 160.403 235.245 158.91 233.368C157.459 231.448 156.649 229.293 156.478 226.904H168.638C168.809 228.056 169.342 228.952 170.238 229.592C171.134 230.232 172.243 230.552 173.566 230.552C174.59 230.552 175.401 230.339 175.998 229.912C176.595 229.485 176.894 228.931 176.894 228.248C176.894 227.352 176.403 226.691 175.422 226.264C174.441 225.837 172.819 225.368 170.558 224.856C167.998 224.344 165.865 223.768 164.158 223.128C162.451 222.488 160.958 221.443 159.678 219.992C158.441 218.541 157.822 216.579 157.822 214.104C157.822 211.971 158.398 210.051 159.55 208.344C160.702 206.595 162.387 205.208 164.606 204.184C166.867 203.16 169.577 202.648 172.734 202.648C177.427 202.648 181.118 203.8 183.806 206.104C186.494 208.408 188.051 211.437 188.478 215.192H177.15C176.937 214.04 176.425 213.165 175.614 212.568C174.846 211.928 173.801 211.608 172.478 211.608C171.454 211.608 170.665 211.8 170.11 212.184C169.598 212.568 169.342 213.101 169.342 213.784C169.342 214.637 169.833 215.299 170.814 215.768C171.795 216.195 173.374 216.643 175.55 217.112C178.153 217.667 180.307 218.285 182.014 218.968C183.763 219.651 185.278 220.76 186.558 222.296C187.881 223.789 188.542 225.837 188.542 228.44C188.542 230.531 187.923 232.408 186.686 234.072C185.491 235.736 183.763 237.059 181.502 238.04C179.283 238.979 176.659 239.448 173.63 239.448ZM215.893 228.312V239H210.453C201.28 239 196.693 234.456 196.693 225.368V213.528H192.277V203.096H196.693V194.392H209.301V203.096H215.829V213.528H209.301V225.56C209.301 226.541 209.514 227.245 209.941 227.672C210.41 228.099 211.178 228.312 212.245 228.312H215.893ZM234.191 209.432C235.599 207.384 237.305 205.763 239.311 204.568C241.316 203.373 243.471 202.776 245.775 202.776V216.152H242.255C239.524 216.152 237.497 216.685 236.175 217.752C234.852 218.819 234.191 220.675 234.191 223.32V239H221.647V203.096H234.191V209.432ZM256.608 199.768C254.389 199.768 252.597 199.171 251.232 197.976C249.909 196.739 249.248 195.203 249.248 193.368C249.248 191.491 249.909 189.933 251.232 188.696C252.597 187.459 254.389 186.84 256.608 186.84C258.784 186.84 260.533 187.459 261.856 188.696C263.221 189.933 263.904 191.491 263.904 193.368C263.904 195.203 263.221 196.739 261.856 197.976C260.533 199.171 258.784 199.768 256.608 199.768ZM262.816 203.096V239H250.272V203.096H262.816ZM282.503 208.088C283.484 206.381 284.871 205.059 286.663 204.12C288.455 203.139 290.567 202.648 292.999 202.648C295.858 202.648 298.439 203.395 300.743 204.888C303.09 206.381 304.924 208.515 306.247 211.288C307.612 214.061 308.295 217.304 308.295 221.016C308.295 224.728 307.612 227.992 306.247 230.808C304.924 233.581 303.09 235.715 300.743 237.208C298.439 238.701 295.858 239.448 292.999 239.448C290.567 239.448 288.455 238.979 286.663 238.04C284.871 237.059 283.484 235.715 282.503 234.008V239H269.959V191.64H282.503V208.088ZM295.559 221.016C295.559 218.669 294.919 216.856 293.639 215.576C292.402 214.253 290.866 213.592 289.031 213.592C287.196 213.592 285.639 214.253 284.359 215.576C283.122 216.899 282.503 218.712 282.503 221.016C282.503 223.363 283.122 225.197 284.359 226.52C285.639 227.843 287.196 228.504 289.031 228.504C290.866 228.504 292.402 227.843 293.639 226.52C294.919 225.155 295.559 223.32 295.559 221.016ZM350.195 203.096V239H337.587V233.88C336.52 235.501 335.048 236.824 333.171 237.848C331.294 238.829 329.139 239.32 326.707 239.32C322.526 239.32 319.219 237.955 316.787 235.224C314.398 232.451 313.203 228.696 313.203 223.96V203.096H325.683V222.36C325.683 224.408 326.216 226.029 327.283 227.224C328.392 228.376 329.843 228.952 331.635 228.952C333.47 228.952 334.92 228.376 335.987 227.224C337.054 226.029 337.587 224.408 337.587 222.36V203.096H350.195ZM378.518 228.312V239H373.078C363.905 239 359.318 234.456 359.318 225.368V213.528H354.902V203.096H359.318V194.392H371.926V203.096H378.454V213.528H371.926V225.56C371.926 226.541 372.139 227.245 372.566 227.672C373.035 228.099 373.803 228.312 374.87 228.312H378.518ZM390.608 199.768C388.389 199.768 386.597 199.171 385.232 197.976C383.909 196.739 383.248 195.203 383.248 193.368C383.248 191.491 383.909 189.933 385.232 188.696C386.597 187.459 388.389 186.84 390.608 186.84C392.784 186.84 394.533 187.459 395.856 188.696C397.221 189.933 397.904 191.491 397.904 193.368C397.904 195.203 397.221 196.739 395.856 197.976C394.533 199.171 392.784 199.768 390.608 199.768ZM396.816 203.096V239H384.272V203.096H396.816ZM420.663 239.448C417.079 239.448 413.858 238.701 410.999 237.208C408.183 235.715 405.964 233.581 404.343 230.808C402.722 228.035 401.911 224.771 401.911 221.016C401.911 217.304 402.722 214.061 404.343 211.288C406.007 208.515 408.247 206.381 411.063 204.888C413.922 203.395 417.143 202.648 420.727 202.648C424.311 202.648 427.511 203.395 430.327 204.888C433.186 206.381 435.426 208.515 437.047 211.288C438.711 214.061 439.543 217.304 439.543 221.016C439.543 224.728 438.711 227.992 437.047 230.808C435.426 233.581 433.186 235.715 430.327 237.208C427.468 238.701 424.247 239.448 420.663 239.448ZM420.663 228.568C422.412 228.568 423.863 227.928 425.015 226.648C426.21 225.325 426.807 223.448 426.807 221.016C426.807 218.584 426.21 216.728 425.015 215.448C423.863 214.168 422.434 213.528 420.727 213.528C419.02 213.528 417.591 214.168 416.439 215.448C415.287 216.728 414.711 218.584 414.711 221.016C414.711 223.491 415.266 225.368 416.375 226.648C417.484 227.928 418.914 228.568 420.663 228.568ZM468.135 202.776C472.273 202.776 475.559 204.163 477.991 206.936C480.423 209.667 481.639 213.379 481.639 218.072V239H469.095V219.736C469.095 217.688 468.561 216.088 467.495 214.936C466.428 213.741 464.999 213.144 463.207 213.144C461.329 213.144 459.857 213.741 458.791 214.936C457.724 216.088 457.191 217.688 457.191 219.736V239H444.647V203.096H457.191V208.216C458.3 206.595 459.793 205.293 461.671 204.312C463.548 203.288 465.703 202.776 468.135 202.776ZM108.608 303.448C103.36 303.448 99.0507 302.211 95.68 299.736C92.3093 297.219 90.496 293.635 90.24 288.984H103.616C103.744 290.563 104.213 291.715 105.024 292.44C105.835 293.165 106.88 293.528 108.16 293.528C109.312 293.528 110.251 293.251 110.976 292.696C111.744 292.099 112.128 291.288 112.128 290.264C112.128 288.941 111.509 287.917 110.272 287.192C109.035 286.467 107.029 285.656 104.256 284.76C101.312 283.779 98.9227 282.84 97.088 281.944C95.296 281.005 93.7173 279.661 92.352 277.912C91.0293 276.12 90.368 273.795 90.368 270.936C90.368 268.035 91.0933 265.56 92.544 263.512C93.9947 261.421 96 259.843 98.56 258.776C101.12 257.709 104.021 257.176 107.264 257.176C112.512 257.176 116.693 258.413 119.808 260.888C122.965 263.32 124.651 266.755 124.864 271.192H111.232C111.189 269.827 110.763 268.803 109.952 268.12C109.184 267.437 108.181 267.096 106.944 267.096C106.005 267.096 105.237 267.373 104.64 267.928C104.043 268.483 103.744 269.272 103.744 270.296C103.744 271.149 104.064 271.896 104.704 272.536C105.387 273.133 106.219 273.667 107.2 274.136C108.181 274.563 109.632 275.117 111.552 275.8C114.411 276.781 116.757 277.763 118.592 278.744C120.469 279.683 122.069 281.027 123.392 282.776C124.757 284.483 125.44 286.659 125.44 289.304C125.44 291.992 124.757 294.403 123.392 296.536C122.069 298.669 120.128 300.355 117.568 301.592C115.051 302.829 112.064 303.448 108.608 303.448ZM169.928 267.096L147.144 320.088H133.512L142.088 301.464L127.367 267.096H141.32L148.872 287.448L156.168 267.096H169.928ZM188.505 303.448C185.262 303.448 182.361 302.915 179.801 301.848C177.284 300.739 175.278 299.245 173.785 297.368C172.334 295.448 171.524 293.293 171.353 290.904H183.513C183.684 292.056 184.217 292.952 185.113 293.592C186.009 294.232 187.118 294.552 188.441 294.552C189.465 294.552 190.276 294.339 190.873 293.912C191.47 293.485 191.769 292.931 191.769 292.248C191.769 291.352 191.278 290.691 190.297 290.264C189.316 289.837 187.694 289.368 185.433 288.856C182.873 288.344 180.74 287.768 179.033 287.128C177.326 286.488 175.833 285.443 174.553 283.992C173.316 282.541 172.697 280.579 172.697 278.104C172.697 275.971 173.273 274.051 174.425 272.344C175.577 270.595 177.262 269.208 179.481 268.184C181.742 267.16 184.452 266.648 187.609 266.648C192.302 266.648 195.993 267.8 198.681 270.104C201.369 272.408 202.926 275.437 203.353 279.192H192.025C191.812 278.04 191.3 277.165 190.489 276.568C189.721 275.928 188.676 275.608 187.353 275.608C186.329 275.608 185.54 275.8 184.985 276.184C184.473 276.568 184.217 277.101 184.217 277.784C184.217 278.637 184.708 279.299 185.689 279.768C186.67 280.195 188.249 280.643 190.425 281.112C193.028 281.667 195.182 282.285 196.889 282.968C198.638 283.651 200.153 284.76 201.433 286.296C202.756 287.789 203.417 289.837 203.417 292.44C203.417 294.531 202.798 296.408 201.561 298.072C200.366 299.736 198.638 301.059 196.377 302.04C194.158 302.979 191.534 303.448 188.505 303.448ZM230.768 292.312V303H225.328C216.155 303 211.568 298.456 211.568 289.368V277.528H207.152V267.096H211.568V258.392H224.176V267.096H230.704V277.528H224.176V289.56C224.176 290.541 224.389 291.245 224.816 291.672C225.285 292.099 226.053 292.312 227.12 292.312H230.768ZM270.826 284.632C270.826 285.613 270.762 286.595 270.634 287.576H246.89C247.018 289.539 247.551 291.011 248.49 291.992C249.471 292.931 250.708 293.4 252.202 293.4C254.292 293.4 255.786 292.461 256.682 290.584H270.058C269.503 293.059 268.415 295.277 266.794 297.24C265.215 299.16 263.21 300.675 260.778 301.784C258.346 302.893 255.658 303.448 252.714 303.448C249.172 303.448 246.015 302.701 243.242 301.208C240.511 299.715 238.356 297.581 236.778 294.808C235.242 292.035 234.474 288.771 234.474 285.016C234.474 281.261 235.242 278.019 236.778 275.288C238.314 272.515 240.447 270.381 243.178 268.888C245.951 267.395 249.13 266.648 252.714 266.648C256.255 266.648 259.391 267.373 262.122 268.824C264.852 270.275 266.986 272.365 268.522 275.096C270.058 277.784 270.826 280.963 270.826 284.632ZM258.026 281.496C258.026 279.96 257.514 278.765 256.49 277.912C255.466 277.016 254.186 276.568 252.65 276.568C251.114 276.568 249.855 276.995 248.874 277.848C247.892 278.659 247.252 279.875 246.954 281.496H258.026ZM322.871 266.776C327.394 266.776 330.935 268.141 333.495 270.872C336.098 273.603 337.399 277.336 337.399 282.072V303H324.855V283.736C324.855 281.816 324.322 280.323 323.255 279.256C322.188 278.189 320.738 277.656 318.903 277.656C317.068 277.656 315.618 278.189 314.551 279.256C313.484 280.323 312.951 281.816 312.951 283.736V303H300.407V283.736C300.407 281.816 299.874 280.323 298.807 279.256C297.783 278.189 296.354 277.656 294.519 277.656C292.642 277.656 291.17 278.189 290.103 279.256C289.036 280.323 288.503 281.816 288.503 283.736V303H275.959V267.096H288.503V271.832C289.612 270.296 291.042 269.08 292.791 268.184C294.583 267.245 296.631 266.776 298.935 266.776C301.58 266.776 303.927 267.352 305.975 268.504C308.066 269.656 309.708 271.277 310.903 273.368C312.183 271.405 313.868 269.827 315.959 268.632C318.05 267.395 320.354 266.776 322.871 266.776ZM120.128 359.64H104.128L101.696 367H88.512L104.96 321.88H119.424L135.808 367H122.56L120.128 359.64ZM116.992 350.04L112.128 335.448L107.328 350.04H116.992ZM163.385 330.776C167.523 330.776 170.809 332.163 173.241 334.936C175.673 337.667 176.889 341.379 176.889 346.072V367H164.345V347.736C164.345 345.688 163.811 344.088 162.745 342.936C161.678 341.741 160.249 341.144 158.457 341.144C156.579 341.144 155.107 341.741 154.041 342.936C152.974 344.088 152.441 345.688 152.441 347.736V367H139.897V331.096H152.441V336.216C153.55 334.595 155.043 333.293 156.921 332.312C158.798 331.288 160.953 330.776 163.385 330.776ZM181.724 349.016C181.724 345.304 182.385 342.061 183.708 339.288C185.073 336.515 186.908 334.381 189.212 332.888C191.558 331.395 194.161 330.648 197.02 330.648C199.494 330.648 201.628 331.139 203.42 332.12C205.212 333.101 206.598 334.424 207.58 336.088V331.096H220.124V367H207.58V362.008C206.598 363.672 205.19 364.995 203.356 365.976C201.564 366.957 199.452 367.448 197.02 367.448C194.161 367.448 191.558 366.701 189.212 365.208C186.908 363.715 185.073 361.581 183.708 358.808C182.385 355.992 181.724 352.728 181.724 349.016ZM207.58 349.016C207.58 346.712 206.94 344.899 205.66 343.576C204.422 342.253 202.886 341.592 201.052 341.592C199.174 341.592 197.617 342.253 196.38 343.576C195.142 344.856 194.524 346.669 194.524 349.016C194.524 351.32 195.142 353.155 196.38 354.52C197.617 355.843 199.174 356.504 201.052 356.504C202.886 356.504 204.422 355.843 205.66 354.52C206.94 353.197 207.58 351.363 207.58 349.016ZM239.816 319.64V367H227.272V319.64H239.816ZM285.615 331.096L262.831 384.088H249.199L257.775 365.464L243.055 331.096H257.007L264.559 351.448L271.855 331.096H285.615ZM304.193 367.448C300.95 367.448 298.049 366.915 295.489 365.848C292.971 364.739 290.966 363.245 289.473 361.368C288.022 359.448 287.211 357.293 287.041 354.904H299.201C299.371 356.056 299.905 356.952 300.801 357.592C301.697 358.232 302.806 358.552 304.128 358.552C305.153 358.552 305.963 358.339 306.561 357.912C307.158 357.485 307.457 356.931 307.457 356.248C307.457 355.352 306.966 354.691 305.985 354.264C305.003 353.837 303.382 353.368 301.121 352.856C298.561 352.344 296.427 351.768 294.72 351.128C293.014 350.488 291.521 349.443 290.241 347.992C289.003 346.541 288.385 344.579 288.385 342.104C288.385 339.971 288.961 338.051 290.113 336.344C291.265 334.595 292.95 333.208 295.169 332.184C297.43 331.16 300.139 330.648 303.297 330.648C307.99 330.648 311.681 331.8 314.369 334.104C317.057 336.408 318.614 339.437 319.041 343.192H307.713C307.499 342.04 306.987 341.165 306.177 340.568C305.409 339.928 304.363 339.608 303.041 339.608C302.017 339.608 301.227 339.8 300.673 340.184C300.161 340.568 299.905 341.101 299.905 341.784C299.905 342.637 300.395 343.299 301.377 343.768C302.358 344.195 303.937 344.643 306.113 345.112C308.715 345.667 310.87 346.285 312.577 346.968C314.326 347.651 315.841 348.76 317.121 350.296C318.443 351.789 319.104 353.837 319.104 356.44C319.104 358.531 318.486 360.408 317.249 362.072C316.054 363.736 314.326 365.059 312.065 366.04C309.846 366.979 307.222 367.448 304.193 367.448ZM331.608 327.768C329.389 327.768 327.597 327.171 326.232 325.976C324.909 324.739 324.248 323.203 324.248 321.368C324.248 319.491 324.909 317.933 326.232 316.696C327.597 315.459 329.389 314.84 331.608 314.84C333.784 314.84 335.533 315.459 336.856 316.696C338.221 317.933 338.904 319.491 338.904 321.368C338.904 323.203 338.221 324.739 336.856 325.976C335.533 327.171 333.784 327.768 331.608 327.768ZM337.816 331.096V367H325.272V331.096H337.816ZM360.255 367.448C357.012 367.448 354.111 366.915 351.551 365.848C349.034 364.739 347.028 363.245 345.535 361.368C344.084 359.448 343.274 357.293 343.103 354.904H355.263C355.434 356.056 355.967 356.952 356.863 357.592C357.759 358.232 358.868 358.552 360.191 358.552C361.215 358.552 362.026 358.339 362.623 357.912C363.22 357.485 363.519 356.931 363.519 356.248C363.519 355.352 363.028 354.691 362.047 354.264C361.066 353.837 359.444 353.368 357.183 352.856C354.623 352.344 352.49 351.768 350.783 351.128C349.076 350.488 347.583 349.443 346.303 347.992C345.066 346.541 344.447 344.579 344.447 342.104C344.447 339.971 345.023 338.051 346.175 336.344C347.327 334.595 349.012 333.208 351.231 332.184C353.492 331.16 356.202 330.648 359.359 330.648C364.052 330.648 367.743 331.8 370.431 334.104C373.119 336.408 374.676 339.437 375.103 343.192H363.775C363.562 342.04 363.05 341.165 362.239 340.568C361.471 339.928 360.426 339.608 359.103 339.608C358.079 339.608 357.29 339.8 356.735 340.184C356.223 340.568 355.967 341.101 355.967 341.784C355.967 342.637 356.458 343.299 357.439 343.768C358.42 344.195 359.999 344.643 362.175 345.112C364.778 345.667 366.932 346.285 368.639 346.968C370.388 347.651 371.903 348.76 373.183 350.296C374.506 351.789 375.167 353.837 375.167 356.44C375.167 358.531 374.548 360.408 373.311 362.072C372.116 363.736 370.388 365.059 368.127 366.04C365.908 366.979 363.284 367.448 360.255 367.448Z" fill="black"/>
<path d="M724 375C724 264.543 813.543 175 924 175H1077C1187.46 175 1277 264.543 1277 375V594H924C813.543 594 724 504.457 724 394V375Z" fill="#1E1E1E"/>
<path d="M531.16 366.059C532.58 352.163 532.023 334.585 549.163 332.132C557.307 330.967 567.641 339.433 570.155 346.55C572.24 352.453 576.937 359.027 572.537 365.138C569.081 369.938 563.025 372.054 557.494 369.275C541.785 361.381 557.357 344.489 567.721 342.295C581.866 339.299 610.87 365.334 603.896 380.453C597.917 393.416 585.736 382.652 589.116 371.734C593.871 356.376 602.522 352.256 618.802 359.549C631.514 365.244 635.999 382.968 632.722 394.701C632.041 397.138 632.02 412.168 630.159 411.457C611.803 404.444 626.897 376.098 640.806 373.266C656.787 370.012 672.994 366.901 687.673 374.377C695.566 378.397 714.763 396.646 709.521 389.505C702.96 380.57 694.913 367.899 694.802 356.253C694.768 352.788 694.395 341.725 695.223 352.264C696.076 363.118 696.574 372.699 699.297 382.674C699.903 384.894 703.897 386.704 705.587 388.084C707.018 389.253 700.063 389.937 699.299 390.174C692.696 392.22 687.958 397.125 683.835 402.467C680.155 407.235 676.787 414.67 672.371 414.425" stroke="black" stroke-width="4" stroke-linecap="round" stroke-linejoin="round"/>
<path d="M1157.48 100.782C1188.57 93.1402 1182.61 94.0026 1213.12 100.413C1220.08 101.877 1230.24 103.214 1234.44 107.964C1240.63 114.973 1232.95 143.108 1217.7 137.496C1207.85 133.87 1205.21 123.892 1215.5 118.368C1232.38 109.309 1252.61 117.683 1262.93 126.799C1274.29 136.834 1274.37 151.052 1262.66 162.821C1257.3 168.197 1245.53 169.489 1248.39 160.307C1254.26 141.42 1276.77 156.552 1279.22 167.432C1283.63 187.03 1264.3 219.369 1234.82 222.785C1225.6 223.854 1227.29 220.394 1230.09 217.428C1232.93 214.418 1239.08 204.535 1237.78 208.015C1235.51 214.101 1230.8 217.544 1225.84 222.07C1219.43 227.909 1240.05 231.578 1246.26 233.19C1249.52 234.037 1254.77 236.471 1256.53 238.783C1260.02 243.348 1244.49 233.105 1240.63 228.735" stroke="black" stroke-width="5" stroke-linecap="round" stroke-linejoin="round"/>
</g>
<defs>
<clipPath id="clip0_9_36">
<rect width="1319" height="541" rx="24" fill="white"/>
</clipPath>
</defs>
</svg>
